<?xml version="1.0" encoding="iso-8859-1"?>
<!-- Generator: Adobe Illustrator 19.0.0, SVG Export Plug-In . SVG Version: 6.00 Build 0)  -->
<svg version="1.1" id="Capa_1" xmlns="http://www.w3.org/2000/svg" xmlns:xlink="http://www.w3.org/1999/xlink" x="0px" y="0px"
	 viewBox="0 0 512 512" style="enable-background:new 0 0 512 512;" xml:space="preserve">
<g>
	<g>
		<path d="M232.83,193.837H62.163c-9.364,0-16.954,7.59-16.954,16.954v140.15c0,9.364,7.59,16.954,16.954,16.954H232.83
			c9.364,0,16.954-7.59,16.954-16.954V210.79C249.784,201.426,242.194,193.837,232.83,193.837z M215.876,333.987H79.117V227.744
			h136.759V333.987z"/>
	</g>
</g>
<g>
	<g>
		<path d="M155.408,210.79v31.647H139.02V210.79h-33.907v48.6c0,9.364,7.59,16.954,16.954,16.954h50.296
			c9.364,0,16.954-7.59,16.954-16.954v-48.6H155.408z"/>
	</g>
</g>
<g>
	<g>
		<path d="M458.879,193.837H282.561c-9.364,0-16.954,7.59-16.954,16.954v140.15c0,9.364,7.59,16.954,16.954,16.954h176.318
			c9.364,0,16.954-7.59,16.954-16.954V210.79C475.832,201.426,468.243,193.837,458.879,193.837z M441.925,333.987H299.514V227.744
			h142.411V333.987z"/>
	</g>
</g>
<g>
	<g>
		<path d="M381.457,210.79v31.647h-22.04V210.79H325.51v48.6c0,9.364,7.59,16.954,16.954,16.954h55.947
			c9.364,0,16.954-7.59,16.954-16.954v-48.6H381.457z"/>
	</g>
</g>
<g>
	<g>
		<path d="M344.159,7.912H167.841c-9.364,0-16.954,7.59-16.954,16.954v140.15c0,9.364,7.59,16.954,16.954,16.954h176.318
			c9.37,0,16.954-7.595,16.954-16.954V24.865C361.113,15.501,353.523,7.912,344.159,7.912z M327.205,148.062H184.795V41.819h142.411
			V148.062z"/>
	</g>
</g>
<g>
	<g>
		<path d="M266.737,24.865v31.082h-21.475V24.865h-33.907v48.035c0,9.364,7.59,16.954,16.954,16.954h55.382
			c9.364,0,16.954-7.59,16.954-16.954V24.865H266.737z"/>
	</g>
</g>
<g>
	<g>
		<path d="M495.046,470.181H16.954C7.59,470.181,0,477.771,0,487.135s7.59,16.954,16.954,16.954h478.093
			c9.364,0,16.954-7.59,16.954-16.954S504.41,470.181,495.046,470.181z"/>
	</g>
</g>
<g>
	<g>
		<path d="M495.046,382.022H16.954C7.59,382.022,0,389.612,0,398.976s7.59,16.954,16.954,16.954h478.093
			c9.364,0,16.954-7.59,16.954-16.954S504.41,382.022,495.046,382.022z"/>
	</g>
</g>
<g>
	<g>
		<rect x="239.046" y="398.976" width="33.907" height="88.159"/>
	</g>
</g>
<g>
	<g>
		<rect x="408.583" y="398.976" width="33.907" height="88.159"/>
	</g>
</g>
<g>
	<g>
		<rect x="69.51" y="398.976" width="33.907" height="88.159"/>
	</g>
</g>
<g>
</g>
<g>
</g>
<g>
</g>
<g>
</g>
<g>
</g>
<g>
</g>
<g>
</g>
<g>
</g>
<g>
</g>
<g>
</g>
<g>
</g>
<g>
</g>
<g>
</g>
<g>
</g>
<g>
</g>
</svg>
