<?xml version="1.0"?>
<svg width="512" height="512" xmlns="http://www.w3.org/2000/svg">

 <g>
  <title>background</title>
  <rect fill="none" id="canvas_background" height="402" width="582" y="-1" x="-1"/>
 </g>
 <g>
  <title>Layer 1</title>
  <g id="svg_1">
   <g id="svg_2">
    <path id="svg_3" d="m232.830002,193.837006l-170.667004,0c-9.363998,0 -16.953999,7.590012 -16.953999,16.95401l0,140.149994c0,9.363983 7.59,16.953979 16.953999,16.953979l170.667004,0c9.363998,0 16.953995,-7.589996 16.953995,-16.953979l0,-140.151016c0,-9.363998 -7.589996,-16.952988 -16.953995,-16.952988zm-16.953995,140.149994l-136.75901,0l0,-106.242996l136.75901,0l0,106.242996z"/>
   </g>
  </g>
  <g id="svg_4">
   <g id="svg_5">
    <path id="svg_6" d="m155.408005,210.789993l0,31.647003l-16.388,0l0,-31.647003l-33.907005,0l0,48.599991c0,9.364014 7.590004,16.95401 16.954002,16.95401l50.296005,0c9.363998,0 16.95401,-7.589996 16.95401,-16.95401l0,-48.599991l-33.909012,0z"/>
   </g>
  </g>
  <g id="svg_7">
   <g id="svg_8">
    <path id="svg_9" d="m458.878998,193.837006l-176.317993,0c-9.364014,0 -16.95401,7.590012 -16.95401,16.95401l0,140.149994c0,9.363983 7.589996,16.953979 16.95401,16.953979l176.317993,0c9.364014,0 16.95401,-7.589996 16.95401,-16.953979l0,-140.151016c-0.001007,-9.363998 -7.589996,-16.952988 -16.95401,-16.952988zm-16.95401,140.149994l-142.41098,0l0,-106.242996l142.41098,0l0,106.242996z"/>
   </g>
  </g>
  <g id="svg_10">
   <g id="svg_11">
    <path id="svg_12" d="m381.457001,210.789993l0,31.647003l-22.040009,0l0,-31.647003l-33.906982,0l0,48.599991c0,9.364014 7.589996,16.95401 16.95401,16.95401l55.946991,0c9.364014,0 16.95401,-7.589996 16.95401,-16.95401l0,-48.599991l-33.90802,0z"/>
   </g>
  </g>
  <g id="svg_13">
   <g id="svg_14">
    <path id="svg_15" d="m344.158997,7.912l-176.317993,0c-9.363998,0 -16.95401,7.59 -16.95401,16.953999l0,140.149992c0,9.363998 7.590012,16.95401 16.95401,16.95401l176.317993,0c9.369995,0 16.95401,-7.595016 16.95401,-16.95401l0,-140.150991c0,-9.363999 -7.589996,-16.953 -16.95401,-16.953zm-16.95401,140.149996l-142.409988,0l0,-106.242996l142.410995,0l0,106.242996l-0.001007,0z"/>
   </g>
  </g>
  <g id="svg_16">
   <g id="svg_17">
    <path id="svg_18" d="m266.737,24.865l0,31.081999l-21.475006,0l0,-31.081999l-33.906998,0l0,48.035002c0,9.363998 7.590012,16.953995 16.95401,16.953995l55.382004,0c9.363983,0 16.953979,-7.589996 16.953979,-16.953995l0,-48.035002l-33.90799,0z"/>
   </g>
  </g>
  <g id="svg_19">
   <g id="svg_20">
    <path id="svg_21" d="m495.04599,470.181l-478.09199,0c-9.364,0 -16.954,7.589996 -16.954,16.95401s7.59,16.95401 16.954,16.95401l478.092997,0c9.363983,0 16.953979,-7.589996 16.953979,-16.95401s-7.590973,-16.95401 -16.954987,-16.95401z"/>
   </g>
  </g>
  <g id="svg_22">
   <g id="svg_23">
    <path id="svg_24" d="m495.04599,382.022003l-478.09199,0c-9.364,0 -16.954,7.589996 -16.954,16.95401s7.59,16.95401 16.954,16.95401l478.092997,0c9.363983,0 16.953979,-7.590027 16.953979,-16.95401s-7.590973,-16.95401 -16.954987,-16.95401z"/>
   </g>
  </g>
  <g id="svg_25">
   <g id="svg_26">
    <rect id="svg_27" height="88.159" width="33.907" y="398.976" x="239.046"/>
   </g>
  </g>
  <g id="svg_28">
   <g id="svg_29">
    <rect id="svg_30" height="88.159" width="33.907" y="398.976" x="408.583"/>
   </g>
  </g>
  <g id="svg_31">
   <g id="svg_32">
    <rect id="svg_33" height="88.159" width="33.907" y="398.976" x="69.51"/>
   </g>
  </g>
  <g id="svg_34"/>
  <g id="svg_35"/>
  <g id="svg_36"/>
  <g id="svg_37"/>
  <g id="svg_38"/>
  <g id="svg_39"/>
  <g id="svg_40"/>
  <g id="svg_41"/>
  <g id="svg_42"/>
  <g id="svg_43"/>
  <g id="svg_44"/>
  <g id="svg_45"/>
  <g id="svg_46"/>
  <g id="svg_47"/>
  <g id="svg_48"/>
  <path stroke="#000" transform="rotate(90 433.054 92.0546)" id="svg_49" d="m426.05661,129.454819l24.411713,-23.100182l-47.203827,0l-47.205414,0l0,-14.300148l0,-14.29966l46.664978,0c25.663422,0 46.658722,-0.725044 46.658722,-1.610916c0,-0.885841 -10.215393,-11.280846 -22.701202,-23.100025l-22.702789,-21.489239l20.987579,0l20.98114,0l32.049896,30.278625l32.051422,30.279045l-32.112518,30.221153l-32.115692,30.221169l-22.090271,0l-22.091858,0l24.418121,-23.099823l0,0z" stroke-width="1.5" fill="#000000"/>
 </g>
</svg>