<?xml version="1.0" encoding="UTF-8" standalone="no"?>
<!DOCTYPE svg PUBLIC "-//W3C//DTD SVG 1.1//EN" "http://www.w3.org/Graphics/SVG/1.1/DTD/svg11.dtd">
<svg version="1.1" xmlns="http://www.w3.org/2000/svg" xmlns:xlink="http://www.w3.org/1999/xlink" preserveAspectRatio="xMidYMid meet" viewBox="0 0 640 640" width="640" height="640"><defs><path d="M586.38 241.98C595.62 249.11 595.75 249.11 560.64 249.11C558.5 249.11 547.84 249.11 528.65 249.11C528.65 242.36 528.65 238.61 528.65 237.86C528.65 231.62 528.78 226.74 528.9 226.74C529.15 226.87 533.28 227.37 538.15 227.87C560.14 230.24 577.63 235.36 586.38 241.98Z" id="g1bctU6prb"></path><path d="M476.18 337.82L255.03 337.82L33.88 337.82L33.88 284.09L33.88 230.36L255.03 230.36L476.18 230.36L476.18 284.09L476.18 337.82Z" id="a201Hcqj6b"></path><path d="M496.92 256.35C499.79 269.22 499.79 299.83 497.05 312.58C494.55 323.95 489.8 334.69 486.3 336.44C486.13 336.54 485.25 337.04 483.68 337.94C483.68 306 483.68 288.26 483.68 284.71C483.68 255.48 484.18 231.61 484.67 231.61C485.3 231.62 486.92 232.86 488.3 234.36C491.8 238.23 494.42 244.86 496.92 256.35Z" id="f3n0oaHecQ"></path><path d="M26.5 337.82C24 337.82 18.76 329.82 16.51 322.32C8.76 297.21 10.01 258.85 19.25 240.36C21.5 235.74 24.25 232.12 25.38 231.87C27.5 231.49 27.63 234.61 27.63 284.59C27.63 315.83 27.13 337.82 26.5 337.82Z" id="a3TzkUbffx"></path><path d="M621.73 266.97C623.61 271.59 623.61 271.84 621.1 272.47C619.73 272.84 618.61 273.22 618.61 273.34C618.61 273.34 619.73 278.84 621.1 285.34C622.48 291.83 623.6 300.2 623.6 303.83C623.6 310.2 623.85 310.57 627.72 312.2C631.84 313.95 631.97 314.07 632.72 323.57C633.85 335.81 633.85 378.92 632.85 387.42C632.79 387.86 632.5 390.07 631.97 394.04L617.47 394.04L602.98 394.04C602.9 388.94 602.86 386.11 602.85 385.54C602.72 366.43 587.98 352.06 568.74 352.44C558.87 352.56 552.74 354.93 545.5 361.68C538.63 368.06 534.63 377.18 534.63 386.8C534.63 393.67 534.51 394.04 531.63 394.04C531.43 394.04 530.43 394.04 528.63 394.04L528.88 324.95L529.26 255.98L571.24 255.61L613.1 255.36L616.36 258.73C619.19 262.48 620.98 265.22 621.73 266.97ZM575.5 303.46C582.25 305.18 586 306.14 586.75 306.33C592.87 307.83 602.61 309.58 608.24 309.95C617.86 310.7 618.61 310.58 618.61 308.33C618.61 304.83 613.99 286.09 611.86 280.97C611.74 280.67 611.11 279.22 609.99 276.6L592.37 276.6L574.75 276.6L575.13 289.96L575.5 303.46Z" id="dQZ4kbL8j"></path><path d="M519.91 359.06L500.92 359.06L482.05 359.06L482.8 372.18L483.68 385.3C480.38 385.3 478.54 385.3 478.18 385.3C472.8 385.3 472.68 385.17 471.8 380.55C471.43 377.93 469.43 372.93 467.43 369.43C461.06 358.18 450.82 352.44 437.45 352.44C428.08 352.44 419.46 356.19 412.83 363.05C408.21 367.92 403.84 376.92 403.71 381.79C403.71 382.03 403.71 383.19 403.71 385.29L324.5 385.29L245.41 385.29C244.88 382.07 244.59 380.28 244.53 379.92C242.04 364.3 227.29 352.43 210.43 352.31C200.56 352.31 190.06 357.31 184.32 364.93C184.06 365.27 182.77 366.98 180.44 370.05C177.74 366.83 176.24 365.04 175.94 364.68C162.33 348.44 136.71 348.31 123.22 364.43C122.91 364.8 121.32 366.68 118.47 370.05C116.15 366.98 114.86 365.28 114.6 364.93C112.23 361.81 107.73 358.19 103.48 356.06C85.99 347.07 64.63 354.69 56.51 372.81C55.13 375.93 53.88 379.93 53.88 381.8C53.88 385.17 53.63 385.3 47.51 385.3C47.08 385.3 44.96 385.3 41.14 385.3L42.01 372.18L42.89 359.06L24.65 359.06L6.41 359.06L6.41 352.19L6.41 345.31L263.15 345.31L519.91 345.31L519.91 352.19L519.91 359.06Z" id="aMVhm8zUe"></path><path d="M589.62 403.28C578.13 417.28 556.39 416.28 546.52 401.28C541.4 393.54 541.02 382.54 545.52 374.17C550.52 365.05 556.89 361.05 567.26 360.67C572.76 360.43 577.01 360.93 579.88 362.18C595.75 369.3 600.62 389.92 589.62 403.28ZM551.14 386.54C551.14 394.16 554.77 399.78 561.76 402.91C568.76 406.03 574.75 405.15 580.63 400.03C593.37 388.79 585.75 369.05 568.64 369.05C565.26 369.05 561.63 370.05 559.39 371.42C554.01 375.05 551.14 380.17 551.14 386.54Z" id="f2d6xo53px"></path><path d="M463.68 393.04C461.44 402.04 452.94 410.66 444.19 412.53C432.94 414.91 421.32 410.53 415.45 401.54C411.2 395.16 410.08 384.67 412.96 377.3C415.2 371.42 422.82 363.56 428.2 361.56C433.32 359.56 443.94 360.18 449.44 362.68C460.56 367.68 466.56 380.67 463.68 393.04ZM422.45 396.29C425.82 401.79 434.44 405.66 440.69 404.54C449.94 402.79 457.43 392.42 455.68 383.67C453.19 371.3 438.69 364.93 428.07 371.55C420.2 376.42 417.58 388.29 422.45 396.29Z" id="bzkc86EKE"></path><path d="M216.29 412.66C200.17 416.28 183.8 403.04 183.8 386.42C183.8 377.3 190.3 367.18 199.05 362.68C204.8 359.68 216.55 359.56 221.92 362.43C244.9 374.55 241.28 407.04 216.29 412.66ZM195.18 395.3C200.18 404.17 209.8 407.17 218.67 402.54C226.04 398.79 229.17 393.04 228.42 384.8C227.92 379.42 227.17 377.93 222.54 373.68C217.54 368.93 217.17 368.81 209.92 369.31C204.3 369.68 201.8 370.55 199.3 372.93C192.43 379.17 190.93 387.67 195.18 395.3Z" id="agEkXwXth"></path><path d="M176.31 386.55C176.31 398.04 166.69 410.16 155.7 412.53C143.07 415.28 131.33 409.79 125.71 398.66C114.47 376.05 137.58 352.19 160.69 362.68C169.69 366.68 176.31 376.8 176.31 386.55ZM133.33 394.79C137.58 403.66 151.07 407.41 158.58 401.91C169.32 393.92 170.44 381.68 161.07 373.3C157.32 369.8 155.7 369.3 148.58 369.18C144.08 369.05 141.95 369.8 138.83 372.3C131.46 378.55 129.46 386.55 133.33 394.79Z" id="a3H73otfqI"></path><path d="M113.72 393.04C111.59 402.04 102.97 410.66 94.35 412.52C83.11 414.9 71.48 410.53 65.62 401.53C61.37 395.16 60.24 384.67 63.12 377.29C65.37 371.42 72.99 363.55 78.36 361.55C83.11 359.68 93.85 360.18 98.85 362.3C110.59 367.42 116.84 380.29 113.72 393.04ZM72.6 396.29C75.98 401.79 84.6 405.66 90.84 404.54C100.09 402.79 107.59 392.42 105.84 383.67C103.34 371.3 88.85 364.93 78.23 371.55C70.36 376.42 67.73 388.29 72.6 396.29Z" id="a1c8zZkazd"></path></defs><g><g><g><use xlink:href="#g1bctU6prb" opacity="1" fill="#000000" fill-opacity="1"></use><g><use xlink:href="#g1bctU6prb" opacity="1" fill-opacity="0" stroke="#000000" stroke-width="1" stroke-opacity="0"></use></g></g><g><use xlink:href="#a201Hcqj6b" opacity="1" fill="#000000" fill-opacity="1"></use><g><use xlink:href="#a201Hcqj6b" opacity="1" fill-opacity="0" stroke="#000000" stroke-width="1" stroke-opacity="0"></use></g></g><g><use xlink:href="#f3n0oaHecQ" opacity="1" fill="#000000" fill-opacity="1"></use><g><use xlink:href="#f3n0oaHecQ" opacity="1" fill-opacity="0" stroke="#000000" stroke-width="1" stroke-opacity="0"></use></g></g><g><use xlink:href="#a3TzkUbffx" opacity="1" fill="#000000" fill-opacity="1"></use><g><use xlink:href="#a3TzkUbffx" opacity="1" fill-opacity="0" stroke="#000000" stroke-width="1" stroke-opacity="0"></use></g></g><g><use xlink:href="#dQZ4kbL8j" opacity="1" fill="#000000" fill-opacity="1"></use><g><use xlink:href="#dQZ4kbL8j" opacity="1" fill-opacity="0" stroke="#000000" stroke-width="1" stroke-opacity="0"></use></g></g><g><use xlink:href="#aMVhm8zUe" opacity="1" fill="#000000" fill-opacity="1"></use><g><use xlink:href="#aMVhm8zUe" opacity="1" fill-opacity="0" stroke="#000000" stroke-width="1" stroke-opacity="0"></use></g></g><g><use xlink:href="#f2d6xo53px" opacity="1" fill="#000000" fill-opacity="1"></use><g><use xlink:href="#f2d6xo53px" opacity="1" fill-opacity="0" stroke="#000000" stroke-width="1" stroke-opacity="0"></use></g></g><g><use xlink:href="#bzkc86EKE" opacity="1" fill="#000000" fill-opacity="1"></use><g><use xlink:href="#bzkc86EKE" opacity="1" fill-opacity="0" stroke="#000000" stroke-width="1" stroke-opacity="0"></use></g></g><g><use xlink:href="#agEkXwXth" opacity="1" fill="#000000" fill-opacity="1"></use><g><use xlink:href="#agEkXwXth" opacity="1" fill-opacity="0" stroke="#000000" stroke-width="1" stroke-opacity="0"></use></g></g><g><use xlink:href="#a3H73otfqI" opacity="1" fill="#000000" fill-opacity="1"></use><g><use xlink:href="#a3H73otfqI" opacity="1" fill-opacity="0" stroke="#000000" stroke-width="1" stroke-opacity="0"></use></g></g><g><use xlink:href="#a1c8zZkazd" opacity="1" fill="#000000" fill-opacity="1"></use><g><use xlink:href="#a1c8zZkazd" opacity="1" fill-opacity="0" stroke="#000000" stroke-width="1" stroke-opacity="0"></use></g></g></g></g></svg>